# xmcd
#
# Track frame offsets: 
#        150
#        5656
#        28936
#        70763
#        127908
#        160644
#        227855
#
# Disc length: 3248 seconds
#
# Revision: 1
# Processed by: cddbd v1.5.2PL0 Copyright (c) Steve Scherf et al.
# Submitted via: ExactAudioCopyFreeDBPlugin 1.0
#
DISCID=510cae07
DTITLE=Little Bushman - The Onus of Sand
DYEAR=2006
DGENRE=Blues
TTITLE0=Introduction
TTITLE1=Where We Get Born
TTITLE2=Baby
TTITLE3=Jimi
TTITLE4=Onus
TTITLE5=Little Bird
TTITLE6=Little Bird (Reprise)
EXTD=
EXTT0=
EXTT1=
EXTT2=
EXTT3=
EXTT4=
EXTT5=
EXTT6=
PLAYORDER=
